<?xml version="1.0" encoding="UTF-8"?>
<svg id="Layer_2" data-name="Layer 2" xmlns="http://www.w3.org/2000/svg"
     viewBox="0 0 484.56 532.39">
    <defs>
        <style>
            .cls-1 {
            fill: #0080c6;
            }

            .cls-2 {
            fill: none;
            }

            .cls-2, .cls-3 {
            stroke: #8f9194;
            stroke-miterlimit: 10;
            }

            .cls-3, .cls-4 {
            fill: #d8d9da;
            }

            .cls-5 {
            fill: #a9abae;
            }

            .cls-6 {
            fill: #ef4c78;
            }

            .cls-7 {
            fill: #fbc1a1;
            }

            .cls-8 {
            fill: #cbccce;
            }

            .cls-4 {
            filter: url(#drop-shadow-1);
            }

            .cls-9 {
            fill: #5c5d60;
            }

            .cls-10 {
            fill: #bcbec0;
            }
        </style>
        <filter id="drop-shadow-1" x="0" y="156.55" width="484.56" height="375.84" filterUnits="userSpaceOnUse">
            <feOffset dx="0" dy="50"/>
            <feGaussianBlur result="blur" stdDeviation="50"/>
            <feFlood flood-color="#231f20" flood-opacity=".4"/>
            <feComposite in2="blur" operator="in"/>
            <feComposite in="SourceGraphic"/>
        </filter>
    </defs>
    <g id="Layer_4" data-name="Layer 4">
        <g>
            <rect class="cls-4" x="150.05" y="256.74" width="184.34" height="75.57" rx="37.79" ry="37.79"/>
            <rect class="cls-7" x="293.83" y="176.59" width="62.98" height="99.31"/>
            <rect class="cls-3" x="150.05" y=".5" width="184.34" height="346.17"/>
            <circle class="cls-9" cx="243.77" cy="13.1" r="4.85"/>
            <circle class="cls-1" cx="168.89" cy="274.63" r="2.74"/>
            <path class="cls-2"
                  d="M168.89,271.88c0-5.37-.03-11.61.06-17.16.24-6.46,0-14.17,4.22-19.36,9.26-11.07,25.51,2.74,32.58-9.43,1.58-2.82,1.92-6.19,2.93-9.23.92-3.08,2.7-5.82,4.63-8.53,3.1-4.88,7.59-9.01,9.63-14.48,2.02-5.47-1.94-11.57-7.62-12.44-4.87-.96-10.04,1.13-14.96,1.29-6.23.52-14.55-2.91-13.3-10.34.54-5.31,3.88-9.84,6.43-14.2,1.91-3.12,3.08-7.01,6.22-9.12,2.7-1.84,6.18-2.12,9.43-2.33,4.29-.27,8.62-.24,12.89-.78,6.97-.85,13.64-3.65,20.51-4.58,6.97-.91,8.6-7.62,10.29-13.62"/>
            <path class="cls-10"
                  d="M221.34,192.57c.13,1.39-.77,2.7-2.17,4.66-1.99,2.69-4.34,6.25-6.42,8.8-1.4,1.81-2.52.36-3.38-1.03-1.37-2.26-3.38-5.48-4.6-7.91-1.13-1.93-.21-3.61,1.43-4.85,1.92-1.6,5.06-4.11,7.1-5.67.82-.58,1.75-1.24,2.74-1.18,1.14.13,1.87,1.07,2.63,2.02,1.03,1.42,2.45,3.4,2.66,5.03v.15Z"/>
            <polygon class="cls-10" points="228.34 211.33 220.8 221.06 211.45 213.34 218.7 203.45 228.34 211.33"/>
            <polygon class="cls-10" points="237.44 198.67 231.72 206.97 221.93 198.86 224.1 193.88 237.44 198.67"/>
            <path class="cls-10"
                  d="M208.84,158.82c.21.75-.6,1.76-1.82,3.38-2.23,2.79-4.63,6.4-6.54,8.35-1.28,1.14-2.5-.28-3.55-1.22-1.5-1.69-4.27-3.5-4.62-5.74-.05-.85.36-1.71.75-2.49.95-1.79,2.43-4.5,3.41-6.17.43-.67.87-1.41,1.6-1.71,1.74-.37,3.23,1.03,4.91,1.78,1.67,1.03,5.18,2.41,5.84,3.73l.03.1Z"/>
            <path class="cls-10"
                  d="M241.04,152.24c-.87,1.98-5.41,3.8-7.65,5.44-2.18,1.16-4.19,2.98-6.34,3.52-.75-.12-.77-1.1-.93-1.76-.33-2.3-.92-7.08-1.21-9.64-.33-2.19.25-3.12,2.43-3.64,2.43-.69,6.91-1.93,9.45-2.61.77-.17,1.63-.43,2.33-.11.98.63,1.04,1.85,1.35,3.13.27,1.68.93,4.09.6,5.55l-.04.12Z"/>
            <path class="cls-10"
                  d="M196.43,246.66c-1.23,1.2-4.95,1.92-7.09,2.83-2.19.71-4.13,1.56-5.97,1.94-.33.04-.57-.01-.76-.17-.32-.27-.49-.74-.65-1.18-.99-3.11-3.56-10.73-4.6-14.3-.98-3.61,10.01-3.34,12.23-2.71,1.64.47,2.1,1.86,2.8,3.43.48,1.09,1.06,2.39,1.63,3.67.73,2.03,2.55,4.81,2.44,6.41l-.03.07Z"/>
            <rect class="cls-5" x="242.92" y="116.63" width="19.85" height="12.01"/>
            <rect class="cls-5" x="238.9" y="112.54" width="27.51" height="4.09"/>
            <rect class="cls-5" x="242.92" y="106.78" width="8.23" height="5.76"/>
            <rect class="cls-8" x="244.99" y="118.1" width="4.68" height="2.74" rx=".39" ry=".39"/>
            <rect class="cls-8" x="250.51" y="118.1" width="4.68" height="2.74" rx=".39" ry=".39"/>
            <rect class="cls-8" x="256.03" y="118.1" width="4.68" height="2.74" rx=".39" ry=".39"/>
            <rect class="cls-8" x="244.99" y="121.38" width="4.68" height="2.74" rx=".39" ry=".39"/>
            <rect class="cls-8" x="250.51" y="121.38" width="4.68" height="2.74" rx=".39" ry=".39"/>
            <rect class="cls-8" x="256.03" y="121.38" width="4.68" height="2.74" rx=".39" ry=".39"/>
            <rect class="cls-8" x="251.72" y="125.9" width="1.87" height="2.74"/>
            <g>
                <path class="cls-6"
                      d="M252.39,116.13l-8.06-20.78c-2.07-5.33,1.86-11.06,7.58-11.06h3.38c5.71,0,9.64,5.74,7.58,11.06l-8.06,20.78c-.43,1.1-1.98,1.1-2.41,0Z"/>
                <circle class="cls-8" cx="253.59" cy="96.53" r="5.49"/>
            </g>
            <rect class="cls-7" x="118.44" y="106.16" width="112.88" height="35.93" rx="10.87" ry="10.87"
                  transform="translate(56.72 -54.84) rotate(21.2)"/>
            <rect class="cls-7" x="102.29" y="140.13" width="112.88" height="35.93" rx="10.87" ry="10.87"
                  transform="translate(67.91 -46.7) rotate(21.2)"/>
            <rect class="cls-7" x="83.92" y="174.36" width="112.88" height="35.93" rx="10.87" ry="10.87"
                  transform="translate(79.04 -37.74) rotate(21.2)"/>
            <rect class="cls-7" x="259.23" y="125.33" width="101.9" height="42.56" rx="10.87" ry="10.87"
                  transform="translate(9.23 -18.11) rotate(3.4)"/>
            <rect class="cls-7" x="68.81" y="206.44" width="98.47" height="35.93" rx="10.87" ry="10.87"
                  transform="translate(89.13 -27.5) rotate(21.2)"/>
        </g>
    </g>
</svg>