<?xml version="1.0" encoding="UTF-8"?>
<svg id="Layer_2" data-name="Layer 2" xmlns="http://www.w3.org/2000/svg" viewBox="0 0 170 100">
  <defs>
    <style>
      .cls-1 {
        fill: #fff;
      }

      .cls-2 {
        fill: #a9abae;
      }

      .cls-3 {
        fill: none;
        stroke: #a7a9ac;
      }

      .cls-3, .cls-4 {
        stroke-miterlimit: 10;
        stroke-width: .5px;
      }

      .cls-4 {
        fill: #9b9da0;
        stroke: #58595b;
      }

      .cls-5 {
        fill: #ef426b;
      }

      .cls-6 {
        fill: #d8d9da;
      }
    </style>
  </defs>
  <g id="Layer_4" data-name="Layer 4">
    <g>
      <rect class="cls-1" width="170" height="100" rx="7.37" ry="7.37"/>
      <rect class="cls-6" y="50" width="170" height="21.45"/>
      <line class="cls-3" x1="8.97" y1="45.23" x2="8.8" y2="53.74"/>
      <line class="cls-3" x1="17.58" y1="45.41" x2="17.41" y2="53.92"/>
      <line class="cls-3" x1="26.26" y1="45.41" x2="26.09" y2="53.92"/>
      <line class="cls-3" x1="34.72" y1="45.41" x2="34.55" y2="53.92"/>
      <line class="cls-3" x1="43.59" y1="45.32" x2="43.42" y2="53.83"/>
      <line class="cls-3" x1="52.2" y1="45.49" x2="52.03" y2="54"/>
      <line class="cls-3" x1="60.88" y1="45.49" x2="60.71" y2="54"/>
      <line class="cls-3" x1="69.34" y1="45.49" x2="69.17" y2="54"/>
      <line class="cls-3" x1="78.27" y1="45.66" x2="78.27" y2="54.18"/>
      <line class="cls-3" x1="86.89" y1="45.66" x2="86.89" y2="54.18"/>
      <line class="cls-3" x1="95.56" y1="45.49" x2="95.56" y2="54"/>
      <line class="cls-3" x1="104.02" y1="45.32" x2="104.02" y2="53.83"/>
      <line class="cls-3" x1="112.57" y1="45.49" x2="112.57" y2="54"/>
      <line class="cls-3" x1="121.18" y1="45.49" x2="121.18" y2="54"/>
      <line class="cls-3" x1="129.86" y1="45.32" x2="129.86" y2="53.83"/>
      <line class="cls-3" x1="138.32" y1="45.15" x2="138.32" y2="53.66"/>
      <line class="cls-3" x1="146.93" y1="45.24" x2="146.93" y2="53.75"/>
      <line class="cls-3" x1="155.61" y1="45.07" x2="155.61" y2="53.58"/>
      <line class="cls-3" x1="164.07" y1="44.9" x2="164.07" y2="53.41"/>
      <polygon class="cls-2" points="118.4 45.66 69.64 45.66 74.4 33.34 113.34 33.34 118.4 45.66"/>
      <rect class="cls-2" x="58.57" y="45.66" width="72.85" height="12.1"/>
      <rect class="cls-5" x="85" y="27.15" width="17.85" height="6.19" rx="1.35" ry="1.35"/>
      <line class="cls-4" x1="85" y1="29.06" x2="102.85" y2="29.06"/>
      <line class="cls-4" x1="85.1" y1="31.2" x2="102.95" y2="31.2"/>
      <circle class="cls-2" cx="68.1" cy="57.63" r="4.33"/>
      <circle class="cls-2" cx="121.22" cy="57.77" r="4.33"/>
    </g>
  </g>
</svg>