<?xml version="1.0" encoding="UTF-8"?>
<svg id="Layer_2" data-name="Layer 2" xmlns="http://www.w3.org/2000/svg" viewBox="0 0 193.79 36.91">
  <defs>
    <style>
      .cls-1 {
        fill: #231f20;
      }

      .cls-2 {
        fill: #e9493f;
      }
    </style>
  </defs>
  <g id="Logo">
    <g>
      <circle class="cls-1" cx="191.48" cy="33.63" r="2.31"/>
      <path class="cls-1" d="M22.47,14.79c-.51-1.38-1.35-2.45-2.5-3.22-1.15-.77-2.7-1.15-4.65-1.15-1.57,0-3.1.32-4.59.96s-2.69,1.34-3.62,2.11V.05H0v36.58h7.11v-17.91c.51-.35,1.05-.67,1.61-.96s1.15-.52,1.77-.69c.63-.18,1.27-.27,1.95-.27.73,0,1.37.14,1.92.41.54.27.97.68,1.29,1.22.32.55.48,1.24.48,2.07v16.13h7.11v-17.04c0-1.83-.26-3.43-.77-4.8Z"/>
      <path class="cls-1" d="M37.32,31.08c-.91-.33-1.53-.89-1.87-1.68-.33-.78-.53-1.83-.6-3.14h6.48c1.7,0,3.17-.22,4.42-.65s2.21-1.15,2.9-2.16,1.03-2.38,1.03-4.1c0-2.34-.34-4.15-1.03-5.43-.69-1.28-1.8-2.17-3.33-2.69-1.54-.51-3.59-.76-6.15-.76-2.85,0-5.1.38-6.77,1.15-1.66.77-2.84,2.11-3.55,4.03-.7,1.92-1.05,4.62-1.05,8.11s.37,6.05,1.12,7.97c.76,1.92,1.98,3.26,3.68,4.01,1.69.75,3.96,1.13,6.81,1.13,2.05,0,3.82-.12,5.31-.36,1.48-.24,2.85-.49,4.1-.75v-4.17h-7.54c-1.72,0-3.04-.17-3.96-.51ZM35.19,18.1c.29-.93.75-1.58,1.39-1.95.64-.36,1.5-.55,2.59-.55,1.03,0,1.84.12,2.45.36.61.24,1.06.64,1.34,1.2.29.56.44,1.31.44,2.23,0,1-.23,1.68-.68,2.07-.45.38-1.15.57-2.11.57h-5.85c0-1.69.14-3,.43-3.93Z"/>
      <path class="cls-2" d="M61.35.67c-.16-.19-.39-.28-.68-.28h-5.47c-.67,0-1.01.33-1.01,1v4.71c0,.64.34.96,1.01.96h5.47c.61,0,.92-.32.92-.96V1.39c0-.28-.08-.52-.24-.72ZM54.34,10.85v25.78h7.1V10.85h-7.1Z"/>
      <path class="cls-1" d="M105.55,14.91c-.47-1.43-1.32-2.53-2.51-3.32-1.2-.78-2.84-1.17-4.92-1.17-1.09,0-2.2.19-3.32.57-1.12.39-2.17.85-3.14,1.4-.98.54-1.83,1.1-2.57,1.68-.54-1.09-1.35-1.97-2.42-2.64-1.08-.68-2.43-1.01-4.06-1.01-1.95,0-3.59.3-4.92.91-1.33.61-2.55,1.33-3.67,2.16l-1.25-2.64h-5.86v25.78h7.11v-17.91c.51-.38,1.05-.72,1.61-1.01.56-.28,1.15-.51,1.77-.67.63-.16,1.27-.24,1.95-.24.76,0,1.42.15,1.96.43.55.29.97.71,1.28,1.25.3.55.45,1.23.45,2.07v16.08h7.11v-15.94c0-.32-.02-.63-.05-.94-.03-.3-.08-.61-.15-.93.77-.55,1.64-1.02,2.62-1.42.98-.4,1.95-.6,2.9-.6.77,0,1.43.15,1.97.43.55.29.97.71,1.27,1.25.31.55.46,1.23.46,2.07v16.08h7.11v-16.71c0-1.92-.24-3.59-.73-5.01Z"/>
      <path class="cls-1" d="M131.5,13.92c-.79-1.25-1.94-2.13-3.46-2.64-1.52-.51-3.35-.77-5.49-.77-2.34,0-4.33.15-5.98.44-1.65.28-3.09.62-4.34,1v4.13h7.73c1.59,0,2.79.12,3.57.36.78.24,1.32.63,1.61,1.15.29.53.43,1.2.43,2v1.77h-6.57c-2.92,0-5.06.63-6.44,1.9-1.37,1.26-2.06,2.87-2.06,4.82v2.31c0,2.04.61,3.64,1.82,4.8,1.22,1.15,2.8,1.72,4.76,1.72,1.05,0,2.07-.11,3.04-.33.98-.23,1.86-.51,2.64-.84.79-.34,1.45-.67,1.99-.99.55-.32.93-.6,1.16-.86l1.15,2.74h5.61v-17.52c0-2.21-.39-3.94-1.17-5.19ZM125.57,30.72c-.06.03-.21.1-.45.19-.24.1-.55.2-.92.32-.37.11-.76.22-1.2.33-.43.11-.84.21-1.25.29-.4.08-.75.12-1.08.12-.57,0-1.09-.09-1.55-.26-.47-.18-.84-.48-1.11-.89-.27-.42-.41-.95-.41-1.59v-1.05c0-.93.3-1.67.89-2.21.59-.54,1.51-.86,2.76-.96l4.32-.29v6Z"/>
      <path class="cls-1" d="M147.79,31.3c-.6-.1-1.11-.27-1.51-.53-.4-.26-.69-.66-.89-1.22-.19-.56-.28-1.32-.28-2.28V0h-7.11v28.32c0,1.95.29,3.55.87,4.78.57,1.23,1.46,2.14,2.66,2.73,1.2.6,2.71.89,4.54.89h3.69v-5.13l-1.97-.29Z"/>
      <path class="cls-1" d="M162.82,31.3c-.61-.1-1.11-.27-1.51-.53-.4-.26-.7-.66-.89-1.22s-.29-1.32-.29-2.28V0h-7.1v28.32c0,1.95.28,3.55.86,4.78.58,1.23,1.46,2.14,2.66,2.73,1.2.6,2.72.89,4.54.89h3.7v-5.13l-1.97-.29Z"/>
      <path class="cls-1" d="M176.81,31.08c-.91-.33-1.54-.89-1.87-1.68-.34-.78-.54-1.83-.6-3.14h6.48c1.69,0,3.17-.22,4.41-.65,1.25-.43,2.22-1.15,2.91-2.16s1.03-2.38,1.03-4.1c0-2.34-.34-4.15-1.03-5.43-.69-1.28-1.8-2.17-3.34-2.69-1.53-.51-3.58-.76-6.14-.76-2.85,0-5.11.38-6.77,1.15-1.66.77-2.85,2.11-3.55,4.03-.71,1.92-1.06,4.62-1.06,8.11s.38,6.05,1.13,7.97c.75,1.92,1.97,3.26,3.67,4.01s3.97,1.13,6.82,1.13c2.05,0,3.81-.12,5.3-.36s2.86-.49,4.11-.75v-4.17h-7.54c-1.73,0-3.05-.17-3.96-.51ZM174.67,18.1c.29-.93.75-1.58,1.4-1.95.64-.36,1.5-.55,2.59-.55,1.02,0,1.84.12,2.45.36.6.24,1.05.64,1.34,1.2.29.56.43,1.31.43,2.23,0,1-.22,1.68-.67,2.07-.45.38-1.15.57-2.11.57h-5.86c0-1.69.15-3,.43-3.93Z"/>
      <rect class="cls-2" y=".05" width="7.11" height="7.01"/>
      <path class="cls-2" d="M61.59,1.39v4.71c0,.64-.31.96-.92.96h-5.47c-.67,0-1.01-.32-1.01-.96V1.39c0-.67.34-1,1.01-1h5.47c.29,0,.52.09.68.28.16.2.24.44.24.72Z"/>
      <rect class="cls-2" x="138" y=".05" width="7.11" height="7.01"/>
      <rect class="cls-2" x="153.03" y=".05" width="7.1" height="7.01"/>
    </g>
  </g>
</svg>